<svg width="54" height="54" viewBox="0 0 54 54" fill="none" xmlns="http://www.w3.org/2000/svg">
<path d="M27 0C12.0897 0 0 12.0897 0 27C0 41.9103 12.0897 54 27 54C41.9103 54 54 41.9103 54 27C54 12.0897 41.9103 0 27 0ZM42.4286 15.29L39.9696 17.6464C39.7527 17.8092 39.6502 18.0743 39.6924 18.3335V35.6725C39.6502 35.9377 39.7527 36.2029 39.9696 36.3596L42.3804 38.7161V39.2404H30.2786V38.7402L32.7676 36.3234C33.0147 36.0763 33.0147 36.004 33.0147 35.6364V21.606L26.0839 39.1801H25.1498L17.0859 21.606V33.3884C17.0136 33.8826 17.1884 34.3828 17.5379 34.7384L20.7804 38.6618V39.1862H11.5714V38.6618L14.8138 34.7384C14.9847 34.5619 15.1118 34.3479 15.1851 34.1135C15.2583 33.8791 15.2757 33.6307 15.2357 33.3884V19.7679C15.2779 19.3882 15.1333 19.0205 14.844 18.7614L11.9632 15.29V14.7656H20.9129L27.8196 29.923L33.9007 14.7777H42.4286V15.29Z" fill="white"/>
</svg>
