<svg width="204" height="215" viewBox="0 0 204 215" fill="none" xmlns="http://www.w3.org/2000/svg">
<g clip-path="url(#clip0_110_2)">
<path d="M51.4044 14.3575C61.3902 8.04646 72.1075 3.32844 83.4328 0.244141C66.5614 38.3393 70.458 82.8823 94.714 117.696C118.971 152.509 160.551 173.237 203.964 173.234C196.605 181.958 187.85 189.546 177.865 195.857C125.148 229.172 53.9343 215.564 19.0584 165.509C-15.8002 115.478 -1.31101 47.6722 51.4044 14.3575Z" fill="#F2CE75"/>
<path d="M43.1872 150.26C75.3352 196.4 138.349 211.536 189.298 187.535C194.64 183.175 199.579 178.431 203.967 173.233C160.554 173.236 118.973 152.508 94.7172 117.694C70.4611 82.8809 66.5635 38.3379 83.436 0.242676C76.6887 2.08132 70.1871 4.56697 63.8986 7.55727C20.8817 42.947 11.0562 104.144 43.1872 150.26Z" fill="#FEDE94"/>
</g>
<defs>
<clipPath id="clip0_110_2">
<rect width="204" height="215" fill="white"/>
</clipPath>
</defs>
</svg>
