<svg width="240" height="262" viewBox="0 0 240 262" fill="none" xmlns="http://www.w3.org/2000/svg">
<path d="M91.8137 19.3575C101.324 13.0465 111.531 8.32848 122.317 5.24418C106.249 43.3393 109.96 87.8823 133.061 122.696C156.163 157.509 195.763 178.237 237.109 178.234C230.1 186.958 221.762 194.546 212.252 200.857C162.046 234.172 94.2232 220.564 61.008 170.509C27.8094 120.478 41.6086 52.6722 91.8137 19.3575Z" fill="#F2CE75"/>
<path d="M83.9879 155.26C114.605 201.4 174.618 216.536 223.141 192.535C228.229 188.175 232.932 183.431 237.111 178.233C195.766 178.236 156.165 157.508 133.064 122.694C109.963 87.8807 106.251 43.3377 122.32 5.24251C115.894 7.08115 109.702 9.5668 103.713 12.5571C62.7445 47.9468 53.3869 109.144 83.9879 155.26Z" fill="#FEDE94"/>
</svg>
