<svg width="60" height="60" viewBox="0 0 60 60" fill="none" xmlns="http://www.w3.org/2000/svg">
<g id="Group">
<g id="cloud">
<path id="Vector" d="M44.51 50.526C43.536 48.164 41.214 46.5 38.5 46.5C38.246 46.5 37.996 46.518 37.75 46.546C37.522 45.638 37.138 45.145 36.63 44.794C35.314 43.885 33.706 43.499 32.107 43.499H27.894C26.295 43.499 24.687 43.885 23.371 44.794C22.863 45.145 22.479 45.638 22.251 46.546C22.005 46.518 21.755 46.5 21.501 46.5C18.788 46.5 16.465 48.164 15.491 50.526C11.311 50.79 8 54.254 8 58.5H52C52 54.254 48.689 50.79 44.51 50.526Z" fill="#F3D55B"/>
<path id="Vector_2" d="M12.008 58.5C12.859 57.375 14.175 56.615 15.68 56.52L17.55 56.402L18.264 54.669C18.807 53.352 20.077 52.5 21.5 52.5C21.638 52.5 21.773 52.511 21.907 52.527L24.517 52.827L26.393 50.978C27.355 50.031 28.65 49.5 30 49.5C31.35 49.5 32.645 50.031 33.607 50.979L35.483 52.828L38.093 52.528C38.227 52.512 38.363 52.501 38.5 52.501C39.923 52.501 41.193 53.353 41.736 54.67L42.45 56.403L44.32 56.521C45.825 56.616 47.141 57.375 47.992 58.501L12.008 58.5Z" fill="#EEAF4B"/>
</g>
<g id="center-fire">
<path id="Vector_3" d="M27 52.5C26.447 52.5 26 52.052 26 51.5V46.5C26 45.948 26.447 45.5 27 45.5C27.553 45.5 28 45.948 28 46.5V51.5C28 52.052 27.553 52.5 27 52.5Z" fill="#F18D46"/>
<path id="Vector_4" d="M30 55.5C29.447 55.5 29 55.052 29 54.5V50.5C29 49.948 29.447 49.5 30 49.5C30.553 49.5 31 49.948 31 50.5V54.5C31 55.052 30.553 55.5 30 55.5Z" fill="#F18D46"/>
<path id="Vector_5" d="M33 50.5C32.447 50.5 32 50.052 32 49.5V46.5C32 45.948 32.447 45.5 33 45.5C33.553 45.5 34 45.948 34 46.5V49.5C34 50.052 33.553 50.5 33 50.5Z" fill="#F18D46"/>
<path id="Vector_6" d="M30 47.5C29.447 47.5 29 47.052 29 46.5V43.5C29 42.948 29.447 42.5 30 42.5C30.553 42.5 31 42.948 31 43.5V46.5C31 47.052 30.553 47.5 30 47.5Z" fill="#F18D46"/>
</g>
<g id="left-fire">
<path id="Vector_7" d="M16 43.5C15.447 43.5 15 43.052 15 42.5V40.5C15 39.948 15.447 39.5 16 39.5C16.553 39.5 17 39.948 17 40.5V42.5C17 43.052 16.553 43.5 16 43.5Z" fill="#F18D46"/>
<path id="Vector_8" d="M19 44.5C18.447 44.5 18 44.052 18 43.5V41.5C18 40.948 18.447 40.5 19 40.5C19.553 40.5 20 40.948 20 41.5V43.5C20 44.052 19.553 44.5 19 44.5Z" fill="#F18D46"/>
<path id="Vector_9" d="M22 43.5C21.447 43.5 21 43.052 21 42.5V40.5C21 39.948 21.447 39.5 22 39.5C22.553 39.5 23 39.948 23 40.5V42.5C23 43.052 22.553 43.5 22 43.5Z" fill="#F18D46"/>
</g>
<g id="right-fire">
<path id="Vector_10" d="M38 43.5C37.447 43.5 37 43.052 37 42.5V40.5C37 39.948 37.447 39.5 38 39.5C38.553 39.5 39 39.948 39 40.5V42.5C39 43.052 38.553 43.5 38 43.5Z" fill="#F18D46"/>
<path id="Vector_11" d="M41 44.5C40.447 44.5 40 44.052 40 43.5V41.5C40 40.948 40.447 40.5 41 40.5C41.553 40.5 42 40.948 42 41.5V43.5C42 44.052 41.553 44.5 41 44.5Z" fill="#F18D46"/>
<path id="Vector_12" d="M44 43.5C43.447 43.5 43 43.052 43 42.5V40.5C43 39.948 43.447 39.5 44 39.5C44.553 39.5 45 39.948 45 40.5V42.5C45 43.052 44.553 43.5 44 43.5Z" fill="#F18D46"/>
</g>
<path id="Vector_13" d="M1 58.5H59" stroke="#AF8066" stroke-width="2" stroke-miterlimit="10" stroke-linecap="round"/>
<g id="rocket">
<path id="Vector_14" d="M29 12.5H31" stroke="#0096E6" stroke-width="2" stroke-miterlimit="10" stroke-linecap="round"/>
<path id="Vector_15" d="M35 39.5H25L27 33.5H33L35 39.5Z" fill="#38454F"/>
<path id="Vector_16" d="M26 22.5V13.5C26 11.493 26.683 9.546 27.937 7.979L28.678 7.052C29.356 6.205 30.644 6.205 31.322 7.052L32.063 7.979C33.317 9.546 34 11.493 34 13.5V22.5L37 24.3V7.4C37 3.534 33.866 0.5 30 0.5C26.134 0.5 23 3.534 23 7.4V24.187L26 22.5Z" fill="#E57E25"/>
<g id="Group_2">
<path id="Vector_17" d="M45 29.0998V9.16681C45 8.66681 44.852 8.17881 44.575 7.76281L42.008 3.91181C41.529 3.19281 40.472 3.19281 39.993 3.91181L37.426 7.76281C37.148 8.17881 37 8.66681 37 9.16681V24.2998L45 29.0998Z" fill="#D1D4D1"/>
<path id="Vector_18" d="M45 34.5H37V37.5H45V34.5Z" fill="#D1D4D1"/>
</g>
<g id="Group_3">
<path id="Vector_19" d="M23 24.1878V9.16681C23 8.66681 22.852 8.17881 22.575 7.76281L20.008 3.91181C19.529 3.19281 18.472 3.19281 17.993 3.91181L15.426 7.76281C15.148 8.17881 15 8.66681 15 9.16681V28.6878L23 24.1878Z" fill="#D1D4D1"/>
<path id="Vector_20" d="M23 34.5H15V37.5H23V34.5Z" fill="#D1D4D1"/>
</g>
<path id="Vector_21" d="M34 22.5002V13.5002C34 11.4932 33.317 9.54624 32.063 7.97924L31.322 7.05224C30.644 6.20524 29.356 6.20524 28.678 7.05224L27.937 7.97924C26.683 9.54624 26 11.4932 26 13.5002V22.5002L10 31.5002V35.5002H23H25H35H37H49V31.5002L34 22.5002Z" fill="#ECF0F1"/>
<path id="Vector_22" d="M49 33.5H10V35.5H49V33.5Z" fill="#546A79"/>
<path id="Vector_23" d="M28.213 13.1979L27.343 12.3279L29.379 10.2919C29.817 9.85388 30.526 9.85388 30.964 10.2919L33 12.3279L32.13 13.1979C31.048 14.2799 29.295 14.2799 28.213 13.1979Z" fill="#546A79"/>
<path id="Vector_24" d="M23 11.5H15V13.5H23V11.5Z" fill="#ECF0F1"/>
<path id="Vector_25" d="M23 19.5H15V21.5H23V19.5Z" fill="#ECF0F1"/>
<path id="Vector_26" d="M45 11.5H37V13.5H45V11.5Z" fill="#ECF0F1"/>
<path id="Vector_27" d="M45 19.5H37V21.5H45V19.5Z" fill="#ECF0F1"/>
</g>
</g>
</svg>
