<svg width="512" height="512" viewBox="0 0 512 512" fill="none" xmlns="http://www.w3.org/2000/svg">
<g clip-path="url(#clip0_102_2)">
<path d="M269.608 390.204L344.219 438.881L438.881 344.22L390.203 269.609L269.608 390.204Z" fill="#E6E2E0"/>
<path d="M264.221 108.906L108.905 264.222L130.358 401.555L215.753 486.95L220.429 375.745L375.745 220.429L486.95 215.754L401.555 130.359L264.221 108.906Z" fill="#EE3840"/>
<path d="M7.17599 7.17499C-18.298 98.969 29.18 184.495 69.319 224.634C81.311 236.627 260.628 415.944 260.628 415.944L415.944 260.628C415.944 260.628 253.608 98.292 224.635 69.319C184.496 29.181 98.969 -18.298 7.17599 7.17499Z" fill="#CCC4C1"/>
<path d="M359.731 359.731C355.103 364.359 347.598 364.359 342.97 359.731L178.183 194.944C173.555 190.316 173.555 182.811 178.183 178.183C182.811 173.555 190.316 173.555 194.944 178.183L359.731 342.97C364.359 347.599 364.36 355.103 359.731 359.731Z" fill="#EE3840"/>
<path d="M152.691 108.895C152.691 84.7071 133.083 65.099 108.895 65.099C84.7071 65.099 65.099 84.7071 65.099 108.895C65.099 133.083 84.7071 152.691 108.895 152.691C133.083 152.691 152.691 133.083 152.691 108.895Z" fill="white"/>
<path d="M432.083 508.529C427.455 513.157 419.95 513.157 415.322 508.529L370.088 463.295C365.46 458.667 365.46 451.162 370.088 446.534C374.716 441.906 382.221 441.906 386.849 446.534L432.083 491.768C436.711 496.396 436.712 503.901 432.083 508.529Z" fill="#FFB14D"/>
<path d="M508.528 432.083C503.9 436.711 496.395 436.711 491.767 432.083L446.533 386.849C441.905 382.221 441.905 374.716 446.533 370.088C451.161 365.46 458.666 365.46 463.294 370.088L508.528 415.322C513.157 419.951 513.157 427.455 508.528 432.083Z" fill="#FFB14D"/>
<path d="M487.679 489.368C483.051 493.996 475.546 493.996 470.918 489.368L407.468 425.918C402.84 421.29 402.84 413.785 407.468 409.157C412.096 404.529 419.601 404.529 424.229 409.157L487.679 472.607C492.307 477.235 492.307 484.739 487.679 489.368Z" fill="#FFB14D"/>
</g>
<defs>
<clipPath id="clip0_102_2">
<rect width="512" height="512" fill="white" transform="translate(0 512) rotate(-90)"/>
</clipPath>
</defs>
</svg>
