<svg width="513" height="513" viewBox="0 0 513 513" fill="none" xmlns="http://www.w3.org/2000/svg">
<g clip-path="url(#clip0_101_2)">
<path d="M477.789 453.919L453.919 477.789C452.124 479.584 449.615 480.476 447.09 480.217L346.789 469.916L348.513 453.125L444.823 463.016L463.019 444.82L453.128 348.51L469.919 346.786L480.216 447.089C480.476 449.615 479.583 452.123 477.789 453.919Z" fill="#127C8D"/>
<path d="M322.029 349.834L362.644 390.448L395.022 359.171L353.857 318.006L322.029 349.834Z" fill="#127C8D"/>
<path d="M177.588 337.023L337.017 177.594L325.082 165.659L165.653 325.088L177.588 337.023Z" fill="#127C8D"/>
<path d="M100.979 85.328L85.326 100.981C82.347 103.96 79.615 109.829 79.255 114.025L75.715 155.165L155.163 75.717L114.023 79.257C109.827 79.617 103.958 82.349 100.979 85.328Z" fill="#4BBCD6"/>
<path d="M194.95 115.502L155.166 75.7188L75.7179 155.167L115.501 194.951L194.95 115.502Z" fill="#127C8D"/>
<path d="M294.024 393.762L393.777 294.008L205.115 105.346L105.362 205.1L294.024 393.762Z" fill="#8FD9C2"/>
<path d="M311.67 164.172L380.321 95.5209L353.473 68.6723L284.822 137.323L311.67 164.172Z" fill="#127C8D"/>
<path d="M338.52 191.013L407.171 122.362L380.322 95.5137L311.671 164.165L338.52 191.013Z" fill="#053847"/>
<path d="M475.817 53.706L448.969 26.8574L380.318 95.5083L407.166 122.357L475.817 53.706Z" fill="#127C8D"/>
<path d="M353.468 68.6569L380.316 95.5055L448.967 26.8546L422.119 0.00598133L353.468 68.6569Z" fill="#4BBCD6"/>
<path d="M475.828 53.6968L407.177 122.348L434.025 149.196L502.676 80.5453L475.828 53.6968Z" fill="#4BBCD6"/>
<path d="M434.009 149.218L407.16 122.37L338.509 191.02L365.358 217.869L434.009 149.218Z" fill="#127C8D"/>
<path d="M191.011 338.51L164.162 311.662L95.511 380.313L122.36 407.161L191.011 338.51Z" fill="#053847"/>
<path d="M26.8515 448.973L95.5025 380.322L68.6539 353.473L0.00295917 422.124L26.8515 448.973Z" fill="#4BBCD6"/>
<path d="M68.6628 353.467L95.5114 380.316L164.162 311.665L137.314 284.816L68.6628 353.467Z" fill="#127C8D"/>
<path d="M53.6935 475.815L122.344 407.164L95.4959 380.316L26.8449 448.967L53.6935 475.815Z" fill="#127C8D"/>
<path d="M191.018 338.515L122.367 407.166L149.216 434.015L217.867 365.364L191.018 338.515Z" fill="#127C8D"/>
<path d="M149.202 434.023L122.354 407.175L53.703 475.825L80.5516 502.674L149.202 434.023Z" fill="#4BBCD6"/>
<path d="M322.334 512.006L512.005 322.335C461.209 313.385 406.999 328.52 367.758 367.759C328.517 406.998 313.384 461.21 322.334 512.006Z" fill="#4BBCD6"/>
<path d="M501.659 477.79L477.789 501.66C474.493 504.956 469.149 504.956 465.853 501.66C462.557 498.364 462.557 493.02 465.853 489.724L489.723 465.854C493.019 462.558 498.363 462.558 501.659 465.854C504.955 469.15 504.955 474.494 501.659 477.79Z" fill="#053847"/>
</g>
<defs>
<clipPath id="clip0_101_2">
<rect width="512.006" height="512.006" fill="white" transform="translate(0 512.006) rotate(-90)"/>
</clipPath>
</defs>
</svg>
