<?xml version="1.0" encoding="utf-8"?>
<!-- Generator: Adobe Illustrator 25.0.0, SVG Export Plug-In . SVG Version: 6.00 Build 0)  -->
<svg version="1.1" id="Layer_1" xmlns="http://www.w3.org/2000/svg" xmlns:xlink="http://www.w3.org/1999/xlink" x="0px" y="0px"
	 viewBox="0 0 1024 1024" style="enable-background:new 0 0 1024 1024;" xml:space="preserve">
<style type="text/css">
	.st0{fill:#F3CF00;}
	.st1{fill:#FFF794;}
</style>
<g>
	<path class="st0" d="M511.6,205l101.26,136.17l169.58-6.21c50.65-1.85,81.45,55.17,52.1,96.51l-98.21,138.37l58.31,159.37
		c17.42,47.6-27.31,94.51-75.7,79.39l-161.95-50.66l-133.53,104.7c-39.91,31.28-98.34,3.23-98.9-47.45l-1.88-169.69l-140.84-94.65
		c-42.07-28.27-33.46-92.51,14.57-108.7l160.8-54.22l46.5-163.2C417.59,175.98,481.36,164.32,511.6,205z"/>
	<path class="st1" d="M568.37,325.53c12.44,16.23,20.9,28.11,37.99,36.18c22.47,10.62,40.11,5.34,82.69,1.87
		c50.14-4.09,93.91-2.32,94.07-0.21c0.15,2-39.23,1.77-96.81,13.79c-56.22,11.73-69.91,22.64-90.49,12.63
		c-8.22-4-21.1-20.8-46.52-54.23c-11.24-14.79-18.94-24.91-29.6-40.33c-22.33-32.32-49.39-75.93-46.89-77.69
		C475.76,215.46,524.29,268.05,568.37,325.53z"/>
	<path class="st1" d="M364.7,432.5c0.37,1.59-5.26,3.85-93.55,31.4c-71.35,22.27-80.15,24.68-80.88,22.85
		c-1.57-3.91,33.62-26.47,75.65-40.62C315.33,429.49,363.65,428.03,364.7,432.5z"/>
	<path class="st1" d="M763.27,693.84c8.01,28.61,10.66,60.72,5.8,62.03c-5.97,1.61-22.89-43.55-31.2-65.75
		c-10.16-27.12-29.92-79.9-23.85-82.77C719.7,604.66,749.56,644.92,763.27,693.84z"/>
</g>
</svg>
