<svg width="133" height="140" viewBox="0 0 133 140" fill="none" xmlns="http://www.w3.org/2000/svg">
<g clip-path="url(#clip0_110_5)">
<path d="M54.7482 5.9607C56.0959 4.1122 57.8532 2.6099 59.8788 1.5746C61.9044 0.5393 64.1417 0 66.4106 0C68.6796 0 70.9168 0.5393 72.9424 1.5746C74.968 2.6099 76.7253 4.1122 78.073 5.9607C79.8697 8.4257 82.3829 10.2597 85.2606 11.2056C88.138 12.1516 91.236 12.1621 94.12 11.2357C96.284 10.5421 98.578 10.3726 100.818 10.741C103.059 11.1093 105.182 12.0052 107.018 13.3565C108.854 14.7078 110.351 16.4768 111.388 18.521C112.426 20.5651 112.975 22.8274 112.991 25.1257C113.014 28.1879 113.982 31.1662 115.76 33.6434C117.538 36.1207 120.036 37.9729 122.905 38.9407C125.059 39.667 127.014 40.8953 128.613 42.5266C130.212 44.1579 131.411 46.1466 132.112 48.3327C132.813 50.5188 132.998 52.8411 132.651 55.1126C132.304 57.3841 131.435 59.5414 130.114 61.4107C128.355 63.9019 127.409 66.8879 127.409 69.9507C127.409 73.0135 128.355 75.9995 130.114 78.4907C131.435 80.36 132.304 82.5173 132.651 84.7888C132.998 87.0603 132.813 89.3827 132.112 91.569C131.411 93.755 130.212 95.744 128.613 97.375C127.014 99.006 125.059 100.234 122.905 100.961C120.036 101.929 117.538 103.781 115.76 106.258C113.982 108.735 113.014 111.713 112.991 114.776C112.975 117.075 112.426 119.337 111.388 121.382C110.35 123.427 108.853 125.196 107.017 126.548C105.18 127.899 103.056 128.795 100.815 129.163C98.574 129.53 96.279 129.36 94.115 128.666C91.232 127.74 88.135 127.752 85.2584 128.697C82.3818 129.643 79.8694 131.477 78.073 133.941C76.7253 135.789 74.968 137.292 72.9424 138.327C70.9168 139.362 68.6796 139.901 66.4106 139.901C64.1417 139.901 61.9044 139.362 59.8788 138.327C57.8532 137.292 56.0959 135.789 54.7482 133.941C52.9515 131.476 50.4383 129.642 47.5606 128.696C44.683 127.75 41.5852 127.739 38.7014 128.666C36.5376 129.359 34.2432 129.529 32.0029 129.16C29.7627 128.792 27.6391 127.896 25.8032 126.545C23.9673 125.194 22.4704 123.425 21.433 121.38C20.3955 119.336 19.8465 117.074 19.8302 114.776C19.8071 111.713 18.8388 108.735 17.0609 106.258C15.2831 103.781 12.7848 101.929 9.9157 100.961C7.7622 100.234 5.8072 99.006 4.2082 97.375C2.6091 95.744 1.4107 93.755 0.709299 91.569C0.00799912 89.3827 -0.176601 87.0603 0.170399 84.7888C0.517299 82.5173 1.3862 80.36 2.707 78.4907C4.4665 75.9995 5.4124 73.0135 5.4124 69.9507C5.4124 66.8879 4.4665 63.9019 2.707 61.4107C1.3862 59.5414 0.517299 57.3841 0.170399 55.1126C-0.176601 52.8411 0.00799912 50.5188 0.709299 48.3327C1.4107 46.1466 2.6091 44.1579 4.2082 42.5266C5.8072 40.8953 7.7622 39.667 9.9157 38.9407C12.7848 37.9729 15.2831 36.1207 17.0609 33.6434C18.8388 31.1662 19.8071 28.1879 19.8302 25.1257C19.8463 22.8268 20.3953 20.5639 21.433 18.5193C22.4707 16.4746 23.9682 14.7053 25.8047 13.3539C27.6412 12.0025 29.7655 11.1067 32.0064 10.7388C34.2473 10.3709 36.5422 10.5411 38.7063 11.2357C41.5895 12.161 44.6862 12.1499 47.5628 11.204C50.4394 10.258 52.9519 8.4247 54.7482 5.9607Z" fill="#FF822D"/>
<path d="M111.154 96.111C96.885 121.136 65.2848 129.711 40.5775 115.261C15.8654 100.811 7.39751 68.8106 21.6669 43.7906C35.9363 18.7656 67.5363 10.1906 92.244 24.6406C116.956 39.0906 125.424 71.0906 111.154 96.111Z" fill="#FCD53F"/>
</g>
<defs>
<clipPath id="clip0_110_5">
<rect width="133" height="140" fill="white"/>
</clipPath>
</defs>
</svg>
