<svg width="49" height="45" viewBox="0 0 49 45" fill="none" xmlns="http://www.w3.org/2000/svg">
<path d="M49 5.33782C47.1981 6.23984 45.2623 6.84932 43.2273 7.1248C45.3271 5.70544 46.898 3.47153 47.6469 0.839901C45.6742 2.16365 43.5151 3.09543 41.2635 3.59473C39.7494 1.76841 37.7439 0.5579 35.5584 0.151131C33.3729 -0.255637 31.1297 0.164095 29.1769 1.34516C27.2242 2.52623 25.6713 4.40255 24.7593 6.68282C23.8473 8.96309 23.6272 11.5197 24.1331 13.9558C20.1358 13.7291 16.2253 12.5553 12.6555 10.5108C9.08574 8.46628 5.93637 5.59663 3.41183 2.0881C2.54862 3.77025 2.05228 5.72057 2.05228 7.79766C2.05131 9.66752 2.45892 11.5087 3.23893 13.1579C4.01893 14.8072 5.14723 16.2134 6.52369 17.2518C4.92736 17.1944 3.36624 16.7072 1.97027 15.8305V15.9768C1.97011 18.5994 2.77313 21.1412 4.24306 23.171C5.713 25.2009 7.75932 26.5937 10.0348 27.1131C8.55392 27.5659 7.00135 27.6326 5.49432 27.3082C6.13632 29.5647 7.38689 31.538 9.07095 32.9517C10.755 34.3654 12.7882 35.1489 14.886 35.1923C11.3249 38.3504 6.927 40.0635 2.39972 40.0559C1.59776 40.0562 0.796474 40.0033 0 39.8975C4.59545 43.2354 9.94489 45.0069 15.4083 45C33.9025 45 44.0128 27.6958 44.0128 12.6881C44.0128 12.2005 44.002 11.708 43.9826 11.2205C45.9492 9.61383 47.6467 7.62432 48.9957 5.34514L49 5.33782Z" fill="#0077B5"/>
</svg>
