<svg width="159" height="160" viewBox="0 0 159 160" fill="none" xmlns="http://www.w3.org/2000/svg">
<path d="M67.7482 15.9607C69.0959 14.1122 70.8532 12.6099 72.8788 11.5746C74.9044 10.5393 77.1417 10 79.4106 10C81.6796 10 83.9168 10.5393 85.9424 11.5746C87.968 12.6099 89.7253 14.1122 91.073 15.9607C92.8697 18.4257 95.3829 20.2597 98.2606 21.2056C101.138 22.1516 104.236 22.1621 107.12 21.2357C109.284 20.5421 111.578 20.3726 113.818 20.741C116.059 21.1093 118.182 22.0052 120.018 23.3565C121.854 24.7078 123.351 26.4768 124.388 28.521C125.426 30.5651 125.975 32.8274 125.991 35.1257C126.014 38.1879 126.982 41.1662 128.76 43.6434C130.538 46.1207 133.036 47.9729 135.905 48.9407C138.059 49.667 140.014 50.8953 141.613 52.5266C143.212 54.1579 144.411 56.1466 145.112 58.3327C145.813 60.5188 145.998 62.8411 145.651 65.1126C145.304 67.3841 144.435 69.5414 143.114 71.4107C141.355 73.9019 140.409 76.8879 140.409 79.9507C140.409 83.0135 141.355 85.9995 143.114 88.4907C144.435 90.36 145.304 92.5173 145.651 94.7888C145.998 97.0603 145.813 99.3827 145.112 101.569C144.411 103.755 143.212 105.744 141.613 107.375C140.014 109.006 138.059 110.234 135.905 110.961C133.036 111.929 130.538 113.781 128.76 116.258C126.982 118.735 126.014 121.713 125.991 124.776C125.975 127.075 125.426 129.337 124.388 131.382C123.35 133.427 121.853 135.196 120.017 136.548C118.18 137.899 116.056 138.795 113.815 139.163C111.574 139.53 109.279 139.36 107.115 138.666C104.232 137.74 101.135 137.752 98.2584 138.697C95.3818 139.643 92.8694 141.477 91.073 143.941C89.7253 145.789 87.968 147.292 85.9424 148.327C83.9168 149.362 81.6796 149.901 79.4106 149.901C77.1417 149.901 74.9044 149.362 72.8788 148.327C70.8532 147.292 69.0959 145.789 67.7482 143.941C65.9515 141.476 63.4383 139.642 60.5606 138.696C57.683 137.75 54.5852 137.739 51.7014 138.666C49.5376 139.359 47.2432 139.529 45.0029 139.16C42.7627 138.792 40.6391 137.896 38.8032 136.545C36.9673 135.194 35.4704 133.425 34.433 131.38C33.3955 129.336 32.8465 127.074 32.8302 124.776C32.8071 121.713 31.8388 118.735 30.0609 116.258C28.2831 113.781 25.7848 111.929 22.9157 110.961C20.7622 110.234 18.8072 109.006 17.2082 107.375C15.6091 105.744 14.4107 103.755 13.7093 101.569C13.008 99.3827 12.8234 97.0603 13.1704 94.7888C13.5173 92.5173 14.3862 90.36 15.707 88.4907C17.4665 85.9995 18.4124 83.0135 18.4124 79.9507C18.4124 76.8879 17.4665 73.9019 15.707 71.4107C14.3862 69.5414 13.5173 67.3841 13.1704 65.1126C12.8234 62.8411 13.008 60.5188 13.7093 58.3327C14.4107 56.1466 15.6091 54.1579 17.2082 52.5266C18.8072 50.8953 20.7622 49.667 22.9157 48.9407C25.7848 47.9729 28.2831 46.1207 30.0609 43.6434C31.8388 41.1662 32.8071 38.1879 32.8302 35.1257C32.8463 32.8268 33.3953 30.5639 34.433 28.5193C35.4707 26.4746 36.9682 24.7053 38.8047 23.3539C40.6412 22.0025 42.7655 21.1067 45.0064 20.7388C47.2473 20.3709 49.5422 20.5411 51.7063 21.2357C54.5895 22.161 57.6862 22.1499 60.5628 21.204C63.4394 20.258 65.9519 18.4247 67.7482 15.9607Z" fill="#FF822D"/>
<path d="M124.154 106.111C109.885 131.136 78.2848 139.711 53.5775 125.261C28.8654 110.811 20.3975 78.8106 34.6669 53.7906C48.9363 28.7656 80.5363 20.1906 105.244 34.6406C129.956 49.0906 138.424 81.0906 124.154 106.111Z" fill="#FCD53F"/>
</svg>
